<?xml version="1.0" encoding="utf-8"?>
<svg xmlns="http://www.w3.org/2000/svg" xmlns:xlink="http://www.w3.org/1999/xlink" style="margin: auto; background: none; display: block; shape-rendering: auto;" width="61px" height="61px" viewBox="0 0 100 100" preserveAspectRatio="xMidYMid">
<g transform="rotate(0 50 50)">
  <rect x="44" y="12.5" rx="2.52" ry="2.5" width="12" height="5" fill="#214fbe">
    <animate attributeName="opacity" values="1;0" keyTimes="0;1" dur="0.5181347150259068s" begin="-0.4533678756476684s" repeatCount="indefinite"></animate>
  </rect>
</g><g transform="rotate(45 50 50)">
  <rect x="44" y="12.5" rx="2.52" ry="2.5" width="12" height="5" fill="#e54d26">
    <animate attributeName="opacity" values="1;0" keyTimes="0;1" dur="0.5181347150259068s" begin="-0.38860103626943004s" repeatCount="indefinite"></animate>
  </rect>
</g><g transform="rotate(90 50 50)">
  <rect x="44" y="12.5" rx="2.52" ry="2.5" width="12" height="5" fill="#5f1dd7">
    <animate attributeName="opacity" values="1;0" keyTimes="0;1" dur="0.5181347150259068s" begin="-0.3238341968911917s" repeatCount="indefinite"></animate>
  </rect>
</g><g transform="rotate(135 50 50)">
  <rect x="44" y="12.5" rx="2.52" ry="2.5" width="12" height="5" fill="#269c8e">
    <animate attributeName="opacity" values="1;0" keyTimes="0;1" dur="0.5181347150259068s" begin="-0.2590673575129534s" repeatCount="indefinite"></animate>
  </rect>
</g><g transform="rotate(180 50 50)">
  <rect x="44" y="12.5" rx="2.52" ry="2.5" width="12" height="5" fill="#ff9e01">
    <animate attributeName="opacity" values="1;0" keyTimes="0;1" dur="0.5181347150259068s" begin="-0.19430051813471502s" repeatCount="indefinite"></animate>
  </rect>
</g><g transform="rotate(225 50 50)">
  <rect x="44" y="12.5" rx="2.52" ry="2.5" width="12" height="5" fill="#214fbe">
    <animate attributeName="opacity" values="1;0" keyTimes="0;1" dur="0.5181347150259068s" begin="-0.1295336787564767s" repeatCount="indefinite"></animate>
  </rect>
</g><g transform="rotate(270 50 50)">
  <rect x="44" y="12.5" rx="2.52" ry="2.5" width="12" height="5" fill="#e54d26">
    <animate attributeName="opacity" values="1;0" keyTimes="0;1" dur="0.5181347150259068s" begin="-0.06476683937823835s" repeatCount="indefinite"></animate>
  </rect>
</g><g transform="rotate(315 50 50)">
  <rect x="44" y="12.5" rx="2.52" ry="2.5" width="12" height="5" fill="#5f1dd7">
    <animate attributeName="opacity" values="1;0" keyTimes="0;1" dur="0.5181347150259068s" begin="0s" repeatCount="indefinite"></animate>
  </rect>
</g>
<!-- [ldio] generated by https://loading.io/ --></svg>